<?xml version="1.0" encoding="UTF-8"?>
<svg width="341px" height="347px" viewBox="0 0 341 347" version="1.1" xmlns="http://www.w3.org/2000/svg" xmlns:xlink="http://www.w3.org/1999/xlink">
    <title>Shape</title>
    <g id="Page-1" stroke="none" stroke-width="1" fill="none" fill-rule="evenodd">
        <g id="Zenweb-icon" fill="#03ADE2" fill-rule="nonzero">
            <path d="M338.555494,148.92 C338.555494,148.92 244.565494,246.36 226.505494,264.35 L266.585494,264.35 C282.265494,248.6 298.285494,233.02 312.825494,216.51 C314.275494,233.22 313.295494,249.98 313.585494,266.7 C313.285494,275.67 314.575494,284.99 310.995494,293.59 C305.745494,307.91 290.095494,319.57 272.545494,319.37 C215.805494,319.59 156.145494,319.17 99.3854936,319.57 C99.6054936,318.39 280.655494,134.68 328.975494,84.54 C333.335494,80.03 339.645494,76.28 340.415494,69.85 C340.345494,60.43 337.675494,51.17 335.065494,42.1 C330.925494,33.08 325.995494,24.18 317.585494,17.65 C305.135494,4.91 285.565494,-0.07 267.025494,0.1 C200.665494,-0.05 134.295494,0.15 67.9354936,-1.70530257e-13 C58.6654936,0.05 49.3754936,0.69 40.3554936,2.61 C26.3554936,5.84 15.6054936,15.65 8.5554936,26.35 C-2.4345064,44.96 0.425493597,66.5 0.125493597,86.72 C0.695493597,105.5 -2.0145064,124.7 4.2654936,142.97 C11.8854936,167.94 38.0554936,188.89 68.2054936,189.06 C68.4754936,197.47 59.5754936,201.75 54.2754936,207.52 C36.3554936,226.03 18.0154936,244.22 0.195493597,262.81 C-0.0245064035,290.59 0.215493597,318.39 0.145493597,346.17 C90.9754936,346.32 181.805494,346.12 272.635494,346.27 C295.975494,346.12 317.225494,333.65 328.615494,316.07 C340.495494,300.02 339.505494,280.18 340.425494,261.87 C338.015494,224.25 342.745494,186.41 338.555494,148.92 Z M59.6254936,318.83 C48.8254936,319.89 38.0054936,319.25 27.2154936,319.5 C27.0454936,305.08 26.5954936,290.66 27.3854936,276.24 C59.1054936,245.65 88.9554936,213.56 120.485494,182.77 C152.655494,148.46 186.965494,115.75 218.885494,81.24 C205.625494,80.8 192.385494,81.19 179.125494,80.92 C151.615494,107.02 126.495494,135.05 99.6354936,161.67 C86.2254936,161.69 72.8154936,161.94 59.4354936,161.5 C40.7554936,156.82 27.0254936,140.7 27.0254936,123.61 C26.9554936,100.64 26.9554936,77.64 26.9754936,54.67 C26.1354936,40.32 40.0154936,26.23 56.7054936,26.42 C130.575494,26.32 204.505494,26.42 278.395494,26.81 C296.635494,30.14 309.795494,44.09 313.565494,59.72 C245.505494,128.52 177.005494,197.01 109.695494,266.38 C93.8654936,284.49 74.9654936,300.44 59.6254936,318.83 Z" id="Shape"></path>
        </g>
    </g>
</svg>
