<?xml version="1.0" encoding="UTF-8"?>
<svg width="340px" height="574px" viewBox="0 0 340 574" version="1.1" xmlns="http://www.w3.org/2000/svg" xmlns:xlink="http://www.w3.org/1999/xlink">
    <title>splashgen-logo</title>
    <defs>
        <linearGradient x1="50.9629835%" y1="13.0233317%" x2="49.0739097%" y2="118.915484%" id="linearGradient-1">
            <stop stop-color="#7B30FF" offset="0.0001220064%"></stop>
            <stop stop-color="#1AB7FF" offset="100%"></stop>
        </linearGradient>
        <linearGradient x1="56.1487913%" y1="-184.221386%" x2="45.8083858%" y2="235.988687%" id="linearGradient-2">
            <stop stop-color="#7B30FF" offset="0.0001220064%"></stop>
            <stop stop-color="#1AB7FF" offset="100%"></stop>
        </linearGradient>
        <linearGradient x1="50.053226%" y1="38.3176812%" x2="47.3392385%" y2="654.604638%" id="linearGradient-3">
            <stop stop-color="#7B30FF" offset="0.0001220064%"></stop>
            <stop stop-color="#1AB7FF" offset="100%"></stop>
        </linearGradient>
        <linearGradient x1="49.531693%" y1="157.017507%" x2="46.8177055%" y2="773.304464%" id="linearGradient-4">
            <stop stop-color="#7B30FF" offset="0.0001220064%"></stop>
            <stop stop-color="#1AB7FF" offset="100%"></stop>
        </linearGradient>
        <linearGradient x1="50.205448%" y1="4.2462345%" x2="48.2562601%" y2="446.575851%" id="linearGradient-5">
            <stop stop-color="#7B30FF" offset="0.0001220064%"></stop>
            <stop stop-color="#1AB7FF" offset="100%"></stop>
        </linearGradient>
    </defs>
    <g id="Page-1" stroke="none" stroke-width="1" fill="none" fill-rule="evenodd">
        <g id="splashgen-logo" fill-rule="nonzero">
            <path d="M316.844561,319.24 C316.594561,318.75 316.334561,318.28 316.084561,317.79 C316.304561,312.36 315.894561,306.89 314.874561,301.54 C313.534561,294.81 312.774561,288.25 312.544561,281.36 C312.404561,274.49 312.674561,267.49 313.814561,259.9 C308.104561,265.27 304.824561,272.74 303.034561,280.36 C302.164561,284.33 301.764561,288.43 301.774561,292.53 C300.714561,299.37 298.714561,310.15 298.714561,310.15 L294.484561,280.93 C279.024561,257.16 261.774561,234.53 245.184561,211.46 L247.684561,177.77 C247.684561,177.77 241.284561,188.65 241.294561,206.02 C232.044561,193.02 223.064561,179.84 214.804561,166.2 C197.524561,137.79 184.664561,105.17 186.414561,71.36 C163.524561,94.52 148.524561,126 146.994561,158.69 C145.914561,187.36 157.104561,215.29 173.874561,238.12 C195.144561,266.77 219.424561,293.07 239.874561,322.31 C254.834561,342.62 267.634561,364.88 274.934561,389.14 C287.714561,429.74 271.924561,478.26 236.494561,502.31 C217.224561,516.17 193.144561,522.78 169.564561,522.27 C135.154561,523.21 100.474561,508.23 78.044561,482.02 C60.424561,459.06 47.824561,431.45 45.894561,402.33 C43.144561,383.49 45.914561,364.33 49.314561,345.77 C62.294561,287.53 94.064561,235.92 127.314561,187.2 C114.694561,198.56 104.424561,212.21 93.654561,225.28 C86.214561,234.26 79.264561,243.61 72.614561,253.17 C74.074561,245.08 77.264561,235.48 83.724561,225.21 C83.724561,225.21 61.044561,247.63 53.244561,282.91 C31.474561,319.73 14.014561,360.26 10.264561,403.17 C10.264561,403.19 10.264561,403.19 10.264561,403.19 C12.764561,417.33 18.304561,436.71 30.334561,446.58 L10.124561,430.89 C10.124561,430.9 10.124561,430.9 10.124561,430.91 C5.86456105,423.7 1.93456105,414.06 0.194561046,401.63 C0.194561046,401.63 -3.34543895,440.17 19.774561,475.13 C19.784561,475.14 19.784561,475.16 19.794561,475.17 C31.414561,504.8 53.084561,530.38 80.194561,547.09 C107.684561,563.49 139.434561,573.22 171.574561,573.3 C210.604561,574.05 250.144561,561.01 280.204561,535.92 C311.784561,509.3 331.084561,470.11 337.494561,429.69 C343.564561,391.79 333.674561,353.12 316.844561,319.24 Z" id="Path" fill="url(#linearGradient-1)"></path>
            <path d="M175.714561,485.49 C160.874561,490.58 145.164561,489.72 129.744561,490.05 C136.334561,491.15 142.324561,494.49 148.974561,495.26 C169.814561,499.25 192.114561,495.38 210.414561,484.64 C226.734561,475.08 238.454561,458.75 243.874561,440.78 C251.114561,417.5 247.864561,391.31 235.554561,370.3 C240.454561,388.9 239.684561,408.7 234.394561,427.12 C226.574561,455.01 203.414561,477.55 175.714561,485.49 Z" id="Path" fill="url(#linearGradient-2)"></path>
            <path d="M112.264561,166.55 C112.964561,173.55 113.474561,180.63 113.804561,188.32 C118.394561,182 120.694561,174.42 121.864561,166.82 C122.974561,159.18 122.724561,151.32 121.274561,143.71 C119.934561,136.98 119.174561,130.42 118.944561,123.53 C118.804561,116.66 119.074561,109.66 120.214561,102.07 C114.504561,107.44 111.224561,114.91 109.434561,122.53 C107.754561,130.2 107.774561,138.4 109.294561,146.02 C110.544561,152.77 111.554561,159.57 112.264561,166.55 Z" id="Path" fill="url(#linearGradient-3)"></path>
            <path d="M126.654561,64.48 C127.354561,71.48 127.864561,78.56 128.194561,86.25 C132.784561,79.93 135.084561,72.35 136.254561,64.75 C137.364561,57.11 137.114561,49.25 135.664561,41.64 C134.324561,34.91 133.564561,28.35 133.334561,21.46 C133.194561,14.59 133.464561,7.59 134.604561,-2.84217094e-14 C128.894561,5.37 125.614561,12.84 123.824561,20.46 C122.144561,28.13 122.164561,36.33 123.684561,43.95 C124.934561,50.7 125.954561,57.5 126.654561,64.48 Z" id="Path" fill="url(#linearGradient-4)"></path>
            <path d="M42.174561,218.08 C43.154561,227.83 43.864561,237.7 44.314561,248.4 C50.714561,239.59 53.914561,229.03 55.544561,218.45 C57.094561,207.8 56.744561,196.86 54.724561,186.25 C52.854561,176.87 51.804561,167.73 51.474561,158.13 C51.274561,148.56 51.664561,138.8 53.234561,128.23 C45.284561,135.71 40.714561,146.12 38.214561,156.74 C35.874561,167.43 35.904561,178.85 38.014561,189.46 C39.774561,198.88 41.194561,208.35 42.174561,218.08 Z" id="Path" fill="url(#linearGradient-5)"></path>
        </g>
    </g>
</svg>
